<svg width="39" height="47" viewBox="0 0 39 47" fill="none" xmlns="http://www.w3.org/2000/svg">
<path d="M23.6952 2.09658C23.3445 1.40428 22.7821 0.841864 22.0898 0.491084C21.7411 0.315838 21.3696 0.190414 20.986 0.118484C20.5921 0.0468437 20.193 0.00728066 19.7926 0.000183854C19.425 -0.0112161 18.9379 0.000183854 18.551 0.000183854H5.82732C5.66232 0.000183854 5.49972 0.000183818 5.33832 0.000683818C4.72548 -0.0171926 4.11232 0.0222456 3.50682 0.118484C3.12321 0.190477 2.7516 0.315898 2.40282 0.491084C1.71085 0.842166 1.14869 1.40451 0.797819 2.09658C0.622702 2.44525 0.497284 2.81672 0.425219 3.20018C0.364842 3.52419 0.328079 3.85215 0.315219 4.18148C0.299619 4.50668 0.297619 4.85918 0.297119 5.19428V5.63518V41.3512C0.297119 41.5001 0.297119 41.647 0.297119 41.7921C0.297119 42.1272 0.299619 42.4797 0.315219 42.805C0.328092 43.1343 0.364855 43.4623 0.425219 43.7863C0.497277 44.1698 0.622695 44.5414 0.797819 44.8902C1.14874 45.5824 1.71107 46.1448 2.40322 46.4958C2.752 46.6709 3.12362 46.7963 3.50722 46.8683C3.90116 46.94 4.30027 46.9796 4.70062 46.9868C5.06802 46.9982 5.55532 46.9968 5.94232 46.9968C10.6633 46.9968 12.2879 47.0002 17.0088 47.0002C16.8905 46.9002 16.7888 46.7617 16.6388 46.6379C16.4415 46.4326 16.2628 46.2102 16.1047 45.9734C15.9122 45.6931 15.7617 45.3863 15.658 45.0625C15.5531 44.7302 15.472 44.3908 15.4153 44.047C15.3594 43.7495 15.3256 43.4482 15.3142 43.1457C15.2995 42.8468 15.2976 42.5233 15.2971 42.2157C15.2971 42.081 15.2971 41.9451 15.2971 41.8071V8.19338C15.2971 8.05538 15.2971 7.91958 15.2971 7.78498C15.2971 7.47718 15.2995 7.15358 15.3142 6.85498C15.3259 6.55246 15.3597 6.25119 15.4153 5.95358C15.4815 5.60074 15.5968 5.25894 15.758 4.93818C16.0807 4.30138 16.598 3.78403 17.2348 3.46128C17.5557 3.30009 17.8976 3.18473 18.2505 3.11858C18.8017 3.02745 19.3602 2.98811 19.9187 3.00108C20.0798 3.00018 20.2428 3.00018 20.4084 3.00018H24.1619M10.6318 6.68098C10.6318 6.94488 10.6318 7.12858 10.6313 7.28218C10.6308 7.43318 10.6293 7.55828 10.6254 7.67318C10.6204 7.89834 10.595 8.12258 10.5497 8.34318C10.5015 8.5735 10.4216 8.79602 10.3122 9.00438C10.0849 9.43554 9.73258 9.78789 9.30142 10.0152C9.09302 10.1244 8.87056 10.2043 8.64032 10.2528C8.4197 10.298 8.19547 10.3233 7.97032 10.3284C7.85532 10.3324 7.73032 10.3338 7.57922 10.3342C7.42562 10.3349 7.24182 10.3348 6.97792 10.3348H5.61612C5.35222 10.3348 5.16842 10.3348 5.01482 10.3342C4.86372 10.3342 4.73872 10.3324 4.62372 10.3284C4.39857 10.3233 4.17434 10.298 3.95372 10.2528C3.72348 10.2043 3.50102 10.1244 3.29262 10.0152C2.86146 9.78789 2.50911 9.43554 2.28182 9.00438C2.17248 8.79602 2.09255 8.5735 2.04432 8.34318C1.99902 8.12258 1.97368 7.89834 1.96862 7.67318C1.96472 7.55828 1.96322 7.43318 1.96272 7.28218C1.96222 7.12848 1.96222 6.94488 1.96222 6.68098V5.31938C1.96222 5.05538 1.96222 4.87178 1.96272 4.71818C1.96272 4.56698 1.96472 4.44188 1.96862 4.32708C1.97369 4.10193 1.99902 3.87769 2.04432 3.65708C2.0927 3.42681 2.17262 3.20431 2.28182 2.99588C2.50902 2.56469 2.86121 2.21222 3.29222 1.98468C3.50062 1.87548 3.72308 1.79553 3.95332 1.74708C4.17394 1.70187 4.39817 1.67657 4.62332 1.67148C4.73832 1.66748 4.86332 1.66618 5.01442 1.66558H5.61572H6.97752H7.57882C7.72992 1.66618 7.85492 1.66748 7.96972 1.67148C8.19507 1.67653 8.4195 1.70183 8.64032 1.74708C8.87056 1.79553 9.09302 1.87548 9.30142 1.98468C9.73252 2.21205 10.0849 2.56438 10.3122 2.99548C10.4215 3.20386 10.5015 3.42637 10.5497 3.65668C10.595 3.87729 10.6204 4.10153 10.6254 4.32668C10.6293 4.44158 10.6308 4.56668 10.6313 4.71778C10.6318 4.87148 10.6318 5.05508 10.6318 5.31898V6.68098ZM35.2968 21.3082V42.6921C35.2624 43.0693 35.081 43.4178 34.7919 43.6625C34.5028 43.9073 34.1291 44.0285 33.7514 44.0002H20.8422C20.4645 44.0285 20.0908 43.9073 19.8017 43.6625C19.5126 43.4178 19.3313 43.0693 19.2968 42.6921V21.3133C19.3313 20.9347 19.5133 20.5848 19.8035 20.3392C20.0936 20.0935 20.4687 19.9718 20.8478 20.0002H33.7516C34.1293 19.9718 34.503 20.0931 34.7921 20.3378C35.0811 20.5825 35.2624 20.931 35.2968 21.3082ZM38.2968 8.82158C38.2963 8.51378 38.2946 8.19018 38.2802 7.89158C38.2683 7.58906 38.2344 7.2878 38.1788 6.99018C38.1127 6.63734 37.9973 6.29554 37.8361 5.97478C37.5132 5.33814 36.996 4.82088 36.3593 4.49798C36.0385 4.33669 35.6966 4.22129 35.3436 4.15518C34.9813 4.08917 34.6142 4.05271 34.246 4.04618C33.9078 4.03618 33.4596 4.03698 33.1036 4.03698H21.3836C21.218 4.03698 21.055 4.03698 20.8936 4.03778C20.3351 4.02473 19.7766 4.06404 19.2254 4.15518C18.8725 4.22132 18.5306 4.33671 18.2097 4.49798C17.5729 4.82058 17.0556 5.33784 16.7328 5.97458C16.5716 6.2954 16.4562 6.63727 16.3901 6.99018C16.3345 7.28779 16.3007 7.58906 16.289 7.89158C16.2743 8.19038 16.2975 8.51398 16.297 8.82158V9.23008V41.8069V42.2155C16.297 42.5233 16.2743 42.8468 16.289 43.1455C16.3007 43.448 16.3345 43.7492 16.3901 44.0468C16.4562 44.3997 16.5716 44.7415 16.7328 45.0623C17.0555 45.6991 17.5728 46.2164 18.2096 46.5392C18.5305 46.7003 18.8724 46.8156 19.2253 46.8819C19.5877 46.9479 19.9549 46.9844 20.3232 46.9908C20.6611 47.0013 21.1093 46.9999 21.4653 46.9999H33.1853H33.6753C34.2337 47.0128 34.7921 46.9735 35.3432 46.8824C35.6961 46.8162 36.038 46.7008 36.3589 46.5397C36.9955 46.2167 37.5128 45.6994 37.8357 45.0628C37.9969 44.742 38.1123 44.4002 38.1784 44.0473C38.234 43.7497 38.2679 43.4485 38.2798 43.146C38.2942 42.8471 38.2959 42.5236 38.2964 42.216C38.2964 42.0813 38.2964 41.9454 38.2964 41.8074V9.23018C38.2968 9.09208 38.2968 8.95628 38.2968 8.82158ZM17.9611 8.70498C17.9618 8.55438 17.963 8.42968 17.9669 8.31498C17.9719 8.09055 17.9971 7.86702 18.0421 7.64708C18.0906 7.41766 18.1704 7.19599 18.2792 6.98828C18.5054 6.55884 18.8563 6.20794 19.2858 5.98178C19.4935 5.87296 19.7151 5.79327 19.9445 5.74498C20.1645 5.69993 20.388 5.67473 20.6125 5.66968C20.7267 5.66578 20.8513 5.66448 21.0019 5.66388C21.155 5.66328 21.3381 5.66388 21.601 5.66388H22.9926H23.4479C23.5944 5.66388 23.7563 5.66388 23.9033 5.66758C24.2072 5.66838 24.5097 5.70721 24.8039 5.78318C25.1386 5.87295 25.4501 6.03365 25.7172 6.25438C25.9843 6.47511 26.2008 6.75071 26.352 7.06248C26.4942 7.36336 26.5809 7.68742 26.6081 8.01908C26.6235 8.17718 26.6291 8.33548 26.6313 8.51908C26.6335 8.68688 26.633 8.94858 26.633 9.30418V10.6969C26.633 10.9597 26.633 11.1427 26.6325 11.2957C26.6318 11.4462 26.6305 11.5709 26.6266 11.6852C26.6215 11.9096 26.5963 12.1332 26.5512 12.3531C26.503 12.5825 26.4234 12.8042 26.3146 13.0119C26.0881 13.4414 25.737 13.7924 25.3075 14.0189C25.0999 14.1277 24.8783 14.2073 24.6489 14.2556C24.429 14.3006 24.2054 14.3258 23.9809 14.3308C23.8666 14.3348 23.7419 14.3362 23.5915 14.3367C23.4382 14.3373 23.2553 14.3367 22.9924 14.3367H21.601C21.2453 14.3367 20.9836 14.3367 20.8159 14.335C20.6323 14.3327 20.4741 14.3271 20.3159 14.3118C19.9842 14.2848 19.6601 14.198 19.3593 14.0556C19.1172 13.9383 18.8964 13.7814 18.706 13.5912C18.4066 13.2906 18.1908 12.917 18.08 12.5075C18.0041 12.2133 17.9652 11.9107 17.9643 11.6069C17.9606 11.46 17.9606 11.2981 17.9606 11.1515C17.9606 10.9999 17.9606 10.8486 17.9606 10.6965V9.30378C17.9606 9.04088 17.9604 8.85788 17.9609 8.70498H17.9611ZM36.2968 42.6921C36.2638 43.3351 35.9775 43.939 35.5005 44.3715C35.0235 44.804 34.3946 45.0301 33.7514 45.0002H20.8422C20.199 45.0301 19.5701 44.804 19.0931 44.3715C18.6161 43.939 18.3298 43.3351 18.2968 42.6921V21.3133C18.3299 20.6688 18.6168 20.0637 19.0949 19.6302C19.5729 19.1967 20.2032 18.9702 20.8478 19.0002H33.7516C34.3948 18.9703 35.0236 19.1963 35.5006 19.6289C35.9775 20.0614 36.2638 20.6652 36.2968 21.3082V42.6921Z" fill="#1D1D1F"/>
</svg>
