<svg width="38" height="25" viewBox="0 0 38 25" fill="none" xmlns="http://www.w3.org/2000/svg">
<path d="M26.4547 14.8356C27.3057 15.0616 28.1836 15.1703 29.064 15.1589V23.5867C29.0372 23.9427 28.8876 24.2782 28.6407 24.536C28.3938 24.7937 28.0651 24.9577 27.7106 24.9998H26.1624C25.7642 24.9563 25.3968 24.7654 25.1323 24.4646C24.8678 24.1637 24.7255 23.7748 24.7333 23.3743V14.1843C25.2925 14.4383 25.8675 14.6558 26.4547 14.8356ZM24.7333 13.0885C23.4791 12.4492 22.3559 11.5804 21.4219 10.5271C20.483 9.50415 19.9171 8.19408 19.8158 6.80924C19.7734 5.63337 20.0507 4.46801 20.6181 3.43724C21.1025 2.64593 21.7686 1.98161 22.5613 1.49947C23.354 1.01734 24.2502 0.731308 25.1756 0.66514C25.2216 0.66514 25.2679 0.665907 25.3144 0.66744C26.7063 0.71344 30.0696 1.02624 33.0903 5.02644C32.927 5.03263 32.7641 5.04715 32.6022 5.06994C31.7918 5.20626 31.0193 5.51228 30.3354 5.96794C29.6515 6.42361 29.0716 7.01863 28.6337 7.71404C27.7952 9.00846 27.3648 10.5249 27.3983 12.0668C27.4063 12.2947 27.4351 12.5213 27.4842 12.7439C27.5966 13.2344 27.7999 13.6996 28.0835 14.1152C27.6309 14.0819 27.1828 14.0028 26.7461 13.879C26.0545 13.6717 25.3812 13.4073 24.7333 13.0885ZM25.7989 6.75554C25.992 6.88815 26.2249 6.95013 26.4583 6.93102C26.6918 6.91191 26.9115 6.81288 27.0804 6.65064L27.1384 6.57824C27.2447 6.46527 27.3227 6.32879 27.3661 6.17993C27.4095 6.03107 27.4172 5.87405 27.3884 5.72168C27.3596 5.56931 27.2951 5.42591 27.2004 5.30317C27.1056 5.18044 26.9832 5.08184 26.843 5.01544L25.333 4.04364C25.1226 3.89687 24.8689 3.82513 24.6128 3.83995C24.3566 3.85477 24.1129 3.95528 23.9208 4.12534L23.8359 4.20774C23.7479 4.31538 23.6841 4.44068 23.6487 4.57515C23.6134 4.70962 23.6074 4.85012 23.6311 4.98712C23.6548 5.12412 23.7077 5.25442 23.7862 5.3692C23.8646 5.48397 23.9669 5.58053 24.0859 5.65234L25.7989 6.75554ZM37.5334 10.951C37.4946 11.1529 37.4421 11.352 37.3763 11.5467C37.2156 12.0089 37.002 12.451 36.7399 12.8641C36.4253 13.4193 36.0243 13.9208 35.5519 14.3498C35.1631 14.7364 34.6995 15.0397 34.1896 15.2411C33.6796 15.4425 33.1339 15.5379 32.5858 15.5213C31.9565 15.5227 31.3316 15.4162 30.7382 15.2064C30.664 15.1717 30.6059 15.1374 30.5361 15.1028C30.2543 14.9655 29.9813 14.8108 29.7186 14.6396C29.5004 14.4975 29.295 14.3365 29.1048 14.1584C29.0904 14.1447 29.078 14.1309 29.0641 14.1171C28.6331 13.6949 28.3369 13.1545 28.2127 12.5641C28.1822 12.4288 28.1618 12.2914 28.1519 12.153C27.9953 10.3309 29.0896 6.42964 32.7285 5.80894C32.9568 5.7688 33.1881 5.74803 33.4198 5.74684C33.4872 5.74684 33.5588 5.75794 33.628 5.76214C33.8933 5.77413 34.1557 5.82203 34.408 5.90454C34.4554 5.92104 34.4969 5.94794 34.5434 5.96574C34.7911 6.05816 35.0309 6.17046 35.2604 6.30154C35.9998 6.72778 36.6105 7.34558 37.0282 8.08984C37.2925 8.57845 37.4725 9.10815 37.5605 9.65664C37.6205 10.0868 37.6114 10.5238 37.5334 10.951ZM36.2297 10.171C36.081 9.68234 35.5179 9.69304 35.1673 10.171L33.4249 12.5724C33.1582 13.0717 33.36 13.6774 33.8275 13.6348H33.8286C34.5627 13.416 35.2004 12.9537 35.6368 12.3242C36.0732 11.6947 36.2823 10.9354 36.2297 10.1712V10.171ZM8.77973 15.1587V23.5865C8.80647 23.9425 8.95611 24.2781 9.20301 24.5359C9.44991 24.7937 9.77874 24.9577 10.1332 24.9998H11.6813C12.0795 24.9564 12.447 24.7654 12.7115 24.4646C12.976 24.1637 13.1183 23.7748 13.1104 23.3743V14.1843C12.5513 14.4381 11.9763 14.6555 11.3891 14.8352C10.5381 15.0613 9.66026 15.1702 8.77983 15.1589L8.77973 15.1587ZM17.2254 3.43704C17.7929 4.46781 18.0701 5.63317 18.0277 6.80904C17.9266 8.19391 17.3608 9.50406 16.4219 10.5271C15.488 11.5805 14.3648 12.4493 13.1106 13.0885C12.4627 13.4072 11.7894 13.6714 11.0977 13.8785C10.6602 14.0024 10.2112 14.0816 9.75773 14.1148C10.0429 13.6997 10.2471 13.2344 10.3594 12.7434C10.4086 12.5208 10.4374 12.2942 10.4453 12.0663C10.4788 10.5246 10.0484 9.00832 9.20993 7.71404C8.77208 7.01867 8.19226 6.42366 7.50844 5.96798C6.82463 5.5123 6.05226 5.20624 5.24193 5.06984C5.08007 5.04705 4.91716 5.03253 4.75383 5.02634C7.77453 1.02634 11.1378 0.713339 12.5297 0.667339C12.5764 0.665839 12.6223 0.665039 12.6685 0.665039C13.5938 0.731327 14.49 1.01743 15.2826 1.49957C16.0751 1.98172 16.7412 2.646 17.2255 3.43724L17.2254 3.43704ZM14.0081 4.20704L13.9232 4.12464C13.7311 3.95458 13.4874 3.85407 13.2313 3.83925C12.9751 3.82443 12.7215 3.89617 12.511 4.04294L11.001 5.01474C10.8609 5.08115 10.7385 5.17974 10.6437 5.30247C10.5489 5.42521 10.4845 5.5686 10.4557 5.72096C10.4269 5.87333 10.4345 6.03034 10.4779 6.1792C10.5213 6.32806 10.5993 6.46455 10.7055 6.57754L10.7636 6.64994C10.9326 6.81218 11.1523 6.91121 11.3857 6.93032C11.6192 6.94943 11.8521 6.88745 12.0451 6.75484L13.7589 5.65164C13.8778 5.57977 13.9799 5.48319 14.0582 5.36845C14.1366 5.2537 14.1893 5.12347 14.213 4.98656C14.2366 4.84966 14.2306 4.70927 14.1952 4.5749C14.1599 4.44053 14.0961 4.31532 14.0082 4.20774L14.0081 4.20704ZM8.77973 14.117C8.76583 14.1308 8.75342 14.1445 8.73903 14.1582C8.54891 14.3363 8.34352 14.4973 8.12523 14.6394C7.86255 14.8106 7.58949 14.9653 7.30763 15.1026C7.23763 15.1372 7.17983 15.1715 7.10563 15.2062C6.51228 15.416 5.88736 15.5225 5.25803 15.5211C4.70998 15.5377 4.16432 15.4423 3.65435 15.241C3.14438 15.0396 2.6808 14.7364 2.29193 14.3498C1.8195 13.9207 1.41844 13.4191 1.10383 12.8638C0.841717 12.4507 0.628171 12.0086 0.467426 11.5464C0.401602 11.3517 0.349114 11.1526 0.310326 10.9507C0.23236 10.5234 0.223211 10.0864 0.283226 9.65624C0.371357 9.10788 0.551349 8.57832 0.815626 8.08984C1.23346 7.34564 1.84432 6.72794 2.58383 6.30184C2.81319 6.17087 3.05277 6.05867 3.30023 5.96634C3.34703 5.94844 3.38873 5.92144 3.43623 5.90484C3.68859 5.82233 3.95098 5.77443 4.21623 5.76244C4.28543 5.75824 4.35703 5.74714 4.42443 5.74714C4.6562 5.74833 4.88745 5.76911 5.11573 5.80924C8.75463 6.42994 9.84893 10.3312 9.69233 12.1533C9.68242 12.2917 9.6621 12.4291 9.63153 12.5644C9.50729 13.1549 9.21092 13.6953 8.77983 14.1175L8.77973 14.117ZM4.41893 12.5724L2.67653 10.1712C2.32593 9.69324 1.76283 9.68254 1.61413 10.1712C1.56372 10.5458 1.58849 10.9266 1.687 11.2915C1.7855 11.6563 1.95576 11.9979 2.18783 12.2961C2.3845 12.6325 2.64818 12.9249 2.96253 13.1552C3.27688 13.3855 3.63518 13.5488 4.01523 13.6348H4.01623C4.48383 13.6774 4.68563 13.0717 4.41893 12.5724Z" fill="#1D1D1F"/>
</svg>
