<svg width="28" height="28" viewBox="0 0 28 28" fill="none" xmlns="http://www.w3.org/2000/svg">
<path d="M14.125 0.5C11.4055 0.5 8.74709 1.30642 6.48592 2.81729C4.22474 4.32816 2.46237 6.47562 1.42166 8.9881C0.380958 11.5006 0.108662 14.2653 0.639209 16.9325C1.16976 19.5997 2.47932 22.0497 4.40229 23.9727C6.32526 25.8957 8.77528 27.2053 11.4425 27.7358C14.1098 28.2663 16.8744 27.994 19.3869 26.9533C21.8994 25.9126 24.0468 24.1503 25.5577 21.8891C27.0686 19.6279 27.875 16.9695 27.875 14.25C27.875 10.6033 26.4263 7.10591 23.8477 4.52728C21.2691 1.94866 17.7717 0.5 14.125 0.5ZM14.125 26.35C11.7319 26.35 9.39244 25.6403 7.40261 24.3108C5.41277 22.9812 3.86188 21.0915 2.94606 18.8805C2.03024 16.6695 1.79062 14.2366 2.2575 11.8894C2.72439 9.54224 3.8768 7.38622 5.56901 5.69401C7.26123 4.00179 9.41724 2.84938 11.7644 2.3825C14.1116 1.91562 16.5445 2.15524 18.7555 3.07106C20.9665 3.98688 22.8562 5.53776 24.1858 7.5276C25.5154 9.51743 26.225 11.8568 26.225 14.25C26.2213 17.458 24.9453 20.5335 22.6769 22.8019C20.4085 25.0703 17.333 26.3463 14.125 26.35ZM14.125 3.25C11.9494 3.25 9.82267 3.89514 8.01373 5.10383C6.20479 6.31253 4.7949 8.03049 3.96233 10.0405C3.12977 12.0505 2.91193 14.2622 3.33637 16.396C3.76081 18.5298 4.80845 20.4898 6.34683 22.0282C7.88521 23.5666 9.84522 24.6142 11.979 25.0386C14.1128 25.4631 16.3245 25.2452 18.3345 24.4127C20.3445 23.5801 22.0625 22.1702 23.2712 20.3613C24.4799 18.5523 25.125 16.4256 25.125 14.25C25.125 12.8055 24.8405 11.3751 24.2877 10.0405C23.7349 8.7059 22.9246 7.49327 21.9032 6.47182C20.8817 5.45038 19.6691 4.64013 18.3345 4.08733C16.9999 3.53452 15.5695 3.25 14.125 3.25ZM14.599 9.506C14.7646 9.30366 14.9711 9.13858 15.205 9.02157C15.4388 8.90456 15.6948 8.83826 15.956 8.827C15.9773 9.0896 15.9454 9.3538 15.8622 9.6038C15.779 9.85379 15.6463 10.0845 15.472 10.282C15.3204 10.4993 15.1168 10.6752 14.8798 10.7936C14.6427 10.9121 14.3798 10.9693 14.115 10.96C14.0903 10.6973 14.1206 10.4324 14.2039 10.182C14.2872 9.93171 14.4218 9.70147 14.599 9.506ZM17.253 16.984C16.877 17.558 16.446 18.136 15.811 18.136C15.211 18.136 15.003 17.748 14.306 17.748C13.557 17.748 13.33 18.136 12.757 18.136C12.122 18.136 11.688 17.527 11.291 16.959C10.6951 16.0579 10.3632 15.0079 10.333 13.928C10.3062 13.3453 10.4405 12.7665 10.721 12.255C10.9171 11.9079 11.1976 11.616 11.5366 11.4062C11.8755 11.1965 12.2619 11.0757 12.66 11.055C13.269 11.034 13.791 11.491 14.16 11.491C14.7454 11.2992 15.3449 11.1534 15.953 11.055C16.2908 11.0538 16.6236 11.1375 16.9206 11.2984C17.2177 11.4593 17.4695 11.6923 17.653 11.976C17.3469 12.1693 17.0942 12.4362 16.9179 12.7524C16.7416 13.0686 16.6474 13.424 16.644 13.786C16.6546 14.1847 16.7777 14.5722 16.9993 14.9039C17.2209 15.2355 17.5317 15.4976 17.896 15.66C17.7514 16.1319 17.5345 16.5786 17.253 16.984Z" fill="#1D1D1F"/>
</svg>
